<svg display="none" xmlns="http://www.w3.org/2000/svg">
	<symbol id="logo-svg" viewBox="0 0 75 22">
						<path d="M49.3908 0.190262H46.7675V21.4635H49.3908V0.190262Z" fill="#214E41" />
						<path d="M56.078 0.190262H53.4547V21.4635H56.078V0.190262Z" fill="#214E41" />
						<path
							d="M73.7314 7.11542L72.4197 9.97205C71.2156 7.91614 69.1084 6.74752 66.6356 6.74752C62.2061 6.74752 59.1958 10.1235 59.1958 14.2786C59.1958 18.4337 62.2061 21.8097 66.6356 21.8097C68.9794 21.8097 71.0006 20.7493 72.2262 18.8882V21.4635H75V7.11542H73.7314ZM67.0442 20.2732C63.9263 20.2732 62.2061 17.7196 62.2061 14.2786C62.2061 10.7511 63.9263 8.28404 67.0442 8.28404C69.904 8.28404 72.0327 10.7944 72.0327 14.2786C72.0327 17.7629 69.904 20.2732 67.0442 20.2732Z"
							fill="#214E41" />
						<path
							d="M23.115 8.2624C22.2764 9.06312 21.6313 10.0586 21.2658 11.1623L19.9111 7.09378H18.6425V21.4418H21.4163V15.9883C21.4163 14.0189 21.6313 12.3742 22.4269 11.2056C23.115 10.2101 24.2976 9.60415 25.7812 9.60415C26.2543 9.60415 26.7274 9.64743 27.2004 9.734V6.98557C26.9209 6.94229 26.6413 6.92065 26.3618 6.92065C25.1577 6.94229 23.9966 7.4184 23.115 8.2624Z"
							fill="#214E41" />
						<path
							d="M35.7368 6.74752C31.2858 6.74752 28.125 9.99369 28.125 14.2786C28.125 18.5636 31.2213 21.8097 35.7153 21.8097C37.3925 21.8314 39.0482 21.3336 40.4458 20.3814C41.6069 19.4941 42.4455 18.239 42.8326 16.8106H39.9728C39.5427 18.6285 38.4246 20.2949 35.9088 20.2949C32.3609 20.2949 31.2213 17.5032 31.1568 14.5167V14.4734H43.1551C43.1551 14.3219 43.1551 14.2137 43.1551 14.1271C43.1766 9.8422 40.1448 6.74752 35.7368 6.74752ZM35.7583 8.2624C38.8976 8.2624 39.8867 10.8377 39.9728 12.9152H31.2428C31.5009 10.3832 32.791 8.2624 35.7583 8.2624Z"
							fill="#214E41" />
						<path
							d="M9.46101 11.0108C12.2778 10.4265 14.4495 8.91163 14.4495 6.27141C14.4495 3.02525 12.0198 1.46709 8.27838 1.46709H0V21.4851H9.15998C12.5358 21.4851 15.2021 19.7538 15.2021 16.0965C15.2021 13.0667 12.6649 11.2272 9.46101 11.0108ZM7.33228 2.91704C10.0201 2.91704 11.4177 4.28043 11.4177 6.4229C11.4177 8.56537 9.89106 10.2317 7.09576 10.2317H3.09633V2.91704H7.33228ZM7.69782 19.9919H3.09633V11.8981H7.22477C10.1706 11.8981 11.9983 13.3481 11.9983 15.9666C11.9983 18.2606 10.4716 19.9919 7.69782 19.9919Z"
							fill="#214E41" />
	</symbol>
	<symbol id="arrow-drop" viewBox="0 0 13 8">
	<path d="M12.3371 1.18649L11.3988 0.113544L6.46055 5.7606L1.53874 0.113544L0.600464 1.18649L6.46055 7.88766H6.47701L12.3371 1.18649Z" fill="#214E41"/>
	</symbol>
	<symbol id="arrow-long" viewBox="0 0 25 19">
		<path d="M0.414429 10.5034H20.901L14.1242 17.1924L15.6099 18.6589L23.3249 11.0179H23.351L24.8106 9.57723L23.351 8.11079H23.3249L15.6099 0.469849L14.1242 1.93629L20.7446 8.44524H0.414429V10.5034Z" fill="#214E41"/>
	</symbol>
	<symbol id="twitter" viewBox="0 0 26 22">
		<path d="M8.17648 21.5629C17.9878 21.5629 23.3542 13.4343 23.3542 6.38512C23.3542 6.15424 23.3542 5.9244 23.3386 5.6956C24.3826 4.94047 25.2838 4.00548 26 2.9344C25.0265 3.366 23.9937 3.64892 22.9362 3.77368C24.0498 3.10709 24.8833 2.05853 25.2814 0.823196C24.2343 1.44461 23.0887 1.88251 21.8941 2.118C21.0898 1.26279 20.0261 0.696491 18.8675 0.506737C17.709 0.316984 16.5202 0.514353 15.4851 1.06831C14.4501 1.62226 13.6264 2.5019 13.1416 3.57113C12.6569 4.64035 12.538 5.83954 12.8034 6.98312C10.6826 6.87673 8.6079 6.32557 6.71391 5.36541C4.81992 4.40524 3.14899 3.05753 1.8096 1.40976C1.12746 2.58409 0.918528 3.97426 1.22536 5.29722C1.53219 6.62018 2.3317 7.77646 3.46112 8.53064C2.61217 8.50577 1.7817 8.27674 1.04 7.86296V7.93056C1.04034 9.16215 1.46667 10.3557 2.24669 11.3088C3.02672 12.2619 4.1124 12.9159 5.3196 13.1597C4.53427 13.3739 3.71028 13.4052 2.91096 13.2512C3.25197 14.3111 3.91563 15.2379 4.80918 15.9021C5.70272 16.5663 6.78148 16.9347 7.89464 16.9557C6.78864 17.8251 5.52209 18.4678 4.16745 18.8472C2.8128 19.2266 1.39665 19.3352 0 19.1668C2.43949 20.7322 5.27792 21.5626 8.17648 21.5588" fill="#FAFAFA"/>
	</symbol>
	<symbol id="youtube" viewBox="0 0 26 20">
		<path d="M25.4818 3.70082C25.3348 3.14769 25.0451 2.64286 24.6417 2.23686C24.2383 1.83087 23.7353 1.53795 23.1831 1.38741C21.1504 0.84082 13.0254 0.84082 13.0254 0.84082C13.0254 0.84082 4.90039 0.84082 2.86766 1.38741C2.31548 1.53795 1.81252 1.83087 1.40912 2.23686C1.00572 2.64286 0.716022 3.14769 0.569027 3.70082C0.0253907 5.74241 0.0253906 9.9999 0.0253906 9.9999C0.0253906 9.9999 0.0253907 14.2574 0.569027 16.299C0.716022 16.8521 1.00572 17.357 1.40912 17.763C1.81252 18.169 2.31548 18.4619 2.86766 18.6124C4.90039 19.159 13.0254 19.159 13.0254 19.159C13.0254 19.159 21.1504 19.159 23.1831 18.6124C23.7353 18.4619 24.2383 18.169 24.6417 17.763C25.0451 17.357 25.3348 16.8521 25.4818 16.299C26.0254 14.2574 26.0254 9.9999 26.0254 9.9999C26.0254 9.9999 26.0254 5.74241 25.4818 3.70082Z" fill="#FAFAFA"/>
<path d="M10.3672 13.8659V6.13379L17.1626 9.99986L10.3672 13.8659Z" fill="#214E41"/>
	</symbol>
	<symbol id="linkedin" viewBox="0 0 26 26">
		<path d="M24.0807 0H1.91931C1.41027 0 0.922092 0.202212 0.562152 0.562152C0.202212 0.922092 0 1.41027 0 1.91931V24.0807C0 24.5897 0.202212 25.0779 0.562152 25.4379C0.922092 25.7978 1.41027 26 1.91931 26H24.0807C24.5897 26 25.0779 25.7978 25.4379 25.4379C25.7978 25.0779 26 24.5897 26 24.0807V1.91931C26 1.41027 25.7978 0.922092 25.4379 0.562152C25.0779 0.202212 24.5897 0 24.0807 0ZM7.74944 22.1488H3.84042V9.73195H7.74944V22.1488ZM5.79222 8.01125C5.34881 8.00875 4.91608 7.87496 4.54863 7.62676C4.18118 7.37856 3.89549 7.02708 3.72762 6.61666C3.55974 6.20625 3.5172 5.75531 3.60537 5.32074C3.69353 4.88618 3.90845 4.48747 4.223 4.17493C4.53755 3.86239 4.93763 3.65004 5.37276 3.56467C5.80788 3.47929 6.25854 3.52473 6.66786 3.69523C7.07719 3.86574 7.42683 4.15368 7.67267 4.52271C7.91851 4.89175 8.04952 5.32533 8.04917 5.76875C8.05335 6.06562 7.99772 6.36029 7.8856 6.63521C7.77347 6.91012 7.60715 7.15964 7.39654 7.36891C7.18592 7.57817 6.93534 7.74289 6.65971 7.85325C6.38408 7.9636 6.08906 8.01734 5.79222 8.01125ZM22.1578 22.1596H18.2506V15.3761C18.2506 13.3756 17.4001 12.7581 16.3024 12.7581C15.1432 12.7581 14.0057 13.6319 14.0057 15.4267V22.1596H10.0967V9.74097H13.8558V11.4617H13.9064C14.2838 10.6979 15.6054 9.3925 17.6222 9.3925C19.8033 9.3925 22.1596 10.6871 22.1596 14.4788L22.1578 22.1596Z" fill="white"/>
	</symbol>
	<symbol id="logo-white" viewBox="0 0 98 28">
		<path fill-rule="evenodd" clip-rule="evenodd" d="M60.6667 0H64.2963V27.4815H60.6667V0ZM40.4444 18.6667C40.4444 21.0864 41.7193 26.4756 46.6667 25.9259C51.3333 25.4074 51.8518 21.2593 51.8518 21.2593H55.4815C55.4815 22.8148 53.1786 28 46.6667 28C39.4074 28 36.2963 22.2963 36.2963 18.6667C36.2963 15.037 37.3333 8.2963 46.6667 8.2963C54.1333 8.2963 56 14.5185 56 18.6667H40.4444ZM51.8518 16.5926H40.4444C40.7901 14.5185 41.4815 10.3704 46.6667 10.3704C51.1223 10.3704 51.8518 15.5556 51.8518 16.5926ZM72.5926 0H69.4815H68.963V27.4815H72.5926V0ZM25.9259 8.8148L27.4815 14C27.8272 12.2716 31.1111 7.77778 35.2593 8.8148V12.4444C32.8395 12.0988 28 13.1704 28 18.1481V27.4815H24.3704V8.8148H25.9259ZM93.8519 12.4444L95.4074 8.8148H97.4815V27.5912L93.3333 27.4815V24.3704C92.642 25.5802 90.4296 28 87.1111 28C82.963 28 76.7407 25.9259 76.7407 18.1481C76.7407 10.3704 82.963 7.77778 87.1111 8.29628C90.404 8.70789 92.9877 11.0617 93.8519 12.4444ZM93.3333 18.1481C93.3333 13.1704 89.7037 10.3704 87.1111 10.3704C84 10.3704 80.8889 12.3407 80.8889 18.1481C80.8889 23.9555 84 25.9259 87.1111 25.9259C89.1852 25.9259 93.3333 23.1259 93.3333 18.1481ZM0 27.4815V1.55556H12.4444C15.5556 1.55556 18.6667 3.11111 18.6667 7.77778C18.6667 12.4444 14.5185 13.4815 12.4444 14C14.8642 14 19.7037 15.3481 19.7037 20.7407C19.7037 26.1333 15.2099 27.4815 12.963 27.4815H0ZM4.14815 3.62963V12.963H10.8889C12.4444 12.963 14.5185 10.3704 14.5185 7.77778C14.5185 5.13384 11.9259 3.62963 10.3704 3.62963H4.14815ZM4.14815 15.037V25.4074H11.4074C13.1358 25.0617 15.5556 23.6444 15.5556 20.7407C15.5556 17.1111 12.963 15.037 10.3704 15.037H4.14815Z" fill="white"/>
	</symbol>
</svg>